<svg width="98" height="18" viewBox="0 0 98 18" fill="none" xmlns="http://www.w3.org/2000/svg">
<path d="M9.92578 14.4375L10.9219 18H14.3906L8.90625 0.9375H5.91797L0.328125 18H3.79688L4.80469 14.4375H9.92578ZM5.61328 11.6367L7.40625 5.35547L9.15234 11.6367H5.61328ZM14.1989 18H18.7809C19.5387 18 20.2497 17.9062 20.9137 17.7188C21.5856 17.5312 22.1989 17.2617 22.7536 16.9102C23.2302 16.6133 23.6677 16.2461 24.0661 15.8086C24.4645 15.3633 24.8122 14.8789 25.1091 14.3555C25.4216 13.7695 25.6637 13.125 25.8356 12.4219C26.0075 11.7188 26.0934 10.9727 26.0934 10.1836V8.77734C26.0934 7.95703 25.9997 7.18359 25.8122 6.45703C25.6325 5.73047 25.3747 5.06641 25.0387 4.46484C24.7497 3.97266 24.4098 3.51953 24.0192 3.10547C23.6364 2.68359 23.1989 2.32812 22.7067 2.03906C22.1442 1.6875 21.5192 1.41797 20.8317 1.23047C20.1442 1.03516 19.4059 0.9375 18.6169 0.9375H14.1989V18ZM17.5153 3.60938H18.6169C19.0153 3.60938 19.3825 3.65625 19.7184 3.75C20.0622 3.83594 20.3747 3.96094 20.6559 4.125C21.0231 4.34375 21.3434 4.625 21.6169 4.96875C21.8981 5.3125 22.1247 5.70312 22.2966 6.14062C22.4372 6.50781 22.5427 6.91406 22.613 7.35938C22.6911 7.79688 22.7302 8.26172 22.7302 8.75391V10.1836C22.7302 10.707 22.6911 11.1953 22.613 11.6484C22.5427 12.0938 22.4372 12.5 22.2966 12.8672C22.1247 13.2891 21.9177 13.6602 21.6755 13.9805C21.4411 14.293 21.1755 14.5508 20.8786 14.7539C20.5895 14.9492 20.2692 15.0977 19.9177 15.1992C19.5661 15.3008 19.1872 15.3516 18.7809 15.3516H17.5153V3.60938ZM24.4898 0.9375V3.59766H27.7359V15.3516H24.4898V18H34.357V15.3516H31.0289V3.59766H34.357V0.9375H24.4898ZM43.0013 11.7422H45.5442C46.4739 11.7422 47.3138 11.6094 48.0638 11.3438C48.8138 11.0781 49.4544 10.707 49.9856 10.2305C50.5091 9.76172 50.9114 9.20312 51.1927 8.55469C51.4817 7.90625 51.6263 7.19922 51.6263 6.43359C51.6263 5.61328 51.4817 4.86719 51.1927 4.19531C50.9114 3.52344 50.5091 2.94531 49.9856 2.46094C49.4544 1.98438 48.8138 1.61328 48.0638 1.34766C47.3138 1.07422 46.4739 0.9375 45.5442 0.9375H39.7083V18H43.0013V11.7422ZM43.0013 9.07031V3.60938H45.5442C46.013 3.60938 46.4192 3.68359 46.763 3.83203C47.1067 3.98047 47.3958 4.18359 47.6302 4.44141C47.8567 4.69922 48.0247 5 48.1341 5.34375C48.2513 5.6875 48.3098 6.05859 48.3098 6.45703C48.3098 6.80078 48.2513 7.13281 48.1341 7.45312C48.0247 7.76562 47.8567 8.04297 47.6302 8.28516C47.3958 8.52734 47.1067 8.71875 46.763 8.85938C46.4192 9 46.013 9.07031 45.5442 9.07031H43.0013ZM61.7714 10.5234V7.92188H54.7636V3.62109H62.9198V0.9375H51.4589V18H62.955V15.3398H54.7636V10.5234H61.7714ZM66.2128 15.3398V0.9375H62.9081V18H74.205V15.3398H66.2128ZM84.4795 10.5234V7.92188H77.4717V3.62109H85.628V0.9375H74.167V18H85.6631V15.3398H77.4717V10.5234H84.4795ZM85.5633 18H90.1453C90.9031 18 91.6141 17.9062 92.2781 17.7188C92.95 17.5312 93.5633 17.2617 94.118 16.9102C94.5945 16.6133 95.032 16.2461 95.4305 15.8086C95.8289 15.3633 96.1766 14.8789 96.4734 14.3555C96.7859 13.7695 97.0281 13.125 97.2 12.4219C97.3719 11.7188 97.4578 10.9727 97.4578 10.1836V8.77734C97.4578 7.95703 97.3641 7.18359 97.1766 6.45703C96.9969 5.73047 96.7391 5.06641 96.4031 4.46484C96.1141 3.97266 95.7742 3.51953 95.3836 3.10547C95.0008 2.68359 94.5633 2.32812 94.0711 2.03906C93.5086 1.6875 92.8836 1.41797 92.1961 1.23047C91.5086 1.03516 90.7703 0.9375 89.9812 0.9375H85.5633V18ZM88.8797 3.60938H89.9812C90.3797 3.60938 90.7469 3.65625 91.0828 3.75C91.4266 3.83594 91.7391 3.96094 92.0203 4.125C92.3875 4.34375 92.7078 4.625 92.9812 4.96875C93.2625 5.3125 93.4891 5.70312 93.6609 6.14062C93.8016 6.50781 93.907 6.91406 93.9773 7.35938C94.0555 7.79688 94.0945 8.26172 94.0945 8.75391V10.1836C94.0945 10.707 94.0555 11.1953 93.9773 11.6484C93.907 12.0938 93.8016 12.5 93.6609 12.8672C93.4891 13.2891 93.282 13.6602 93.0398 13.9805C92.8055 14.293 92.5398 14.5508 92.243 14.7539C91.9539 14.9492 91.6336 15.0977 91.282 15.1992C90.9305 15.3008 90.5516 15.3516 90.1453 15.3516H88.8797V3.60938Z" fill="#131313"/>
</svg>
